<svg xmlns="http://www.w3.org/2000/svg" viewBox="0 0 900 600" role="img" aria-label="Syria flag">
  <rect width="900" height="200" y="0" fill="#007a3d"/>
  <rect width="900" height="200" y="200" fill="#ffffff"/>
  <rect width="900" height="200" y="400" fill="#000000"/>
  <g fill="#ce1126">
    <path d="M300 242l16.46 50.66h53.27l-43.09 31.31 16.46 50.66L300 343.32l-43.1 31.31 16.46-50.66-43.09-31.31h53.27z"/>
    <path d="M450 242l16.46 50.66h53.27l-43.09 31.31 16.46 50.66L450 343.32l-43.1 31.31 16.46-50.66-43.09-31.31h53.27z"/>
    <path d="M600 242l16.46 50.66h53.27l-43.09 31.31 16.46 50.66L600 343.32l-43.1 31.31 16.46-50.66-43.09-31.31h53.27z"/>
  </g>
</svg>
