<svg xmlns="http://www.w3.org/2000/svg" viewBox="0 0 741 390"><rect width="741" height="390" fill="#fff"/><g fill="#b22234"><rect y="0" width="741" height="30"/><rect y="60" width="741" height="30"/><rect y="120" width="741" height="30"/><rect y="180" width="741" height="30"/><rect y="240" width="741" height="30"/><rect y="300" width="741" height="30"/><rect y="360" width="741" height="30"/></g><rect width="296" height="210" fill="#3c3b6e"/><g fill="#fff"><circle cx="25" cy="22" r="7"/><circle cx="70" cy="22" r="7"/><circle cx="115" cy="22" r="7"/><circle cx="160" cy="22" r="7"/><circle cx="205" cy="22" r="7"/><circle cx="250" cy="22" r="7"/><circle cx="25" cy="60" r="7"/><circle cx="70" cy="60" r="7"/><circle cx="115" cy="60" r="7"/><circle cx="160" cy="60" r="7"/><circle cx="205" cy="60" r="7"/><circle cx="250" cy="60" r="7"/><circle cx="25" cy="98" r="7"/><circle cx="70" cy="98" r="7"/><circle cx="115" cy="98" r="7"/><circle cx="160" cy="98" r="7"/><circle cx="205" cy="98" r="7"/><circle cx="250" cy="98" r="7"/><circle cx="25" cy="136" r="7"/><circle cx="70" cy="136" r="7"/><circle cx="115" cy="136" r="7"/><circle cx="160" cy="136" r="7"/><circle cx="205" cy="136" r="7"/><circle cx="250" cy="136" r="7"/><circle cx="25" cy="174" r="7"/><circle cx="70" cy="174" r="7"/><circle cx="115" cy="174" r="7"/><circle cx="160" cy="174" r="7"/><circle cx="205" cy="174" r="7"/><circle cx="250" cy="174" r="7"/></g></svg>